<svg xmlns="http://www.w3.org/2000/svg" version="1.1" xmlns:xlink="http://www.w3.org/1999/xlink" xmlns:svgjs="http://svgjs.dev/svgjs" width="1500" height="1500" viewBox="0 0 1500 1500"><rect width="1500" height="1500" fill="#ffffff"></rect><g transform="matrix(0.6666666666666666,0,0,0.6666666666666666,249.39393939393938,621.8407828694882)"><svg viewBox="0 0 396 102" data-background-color="#ffffff" preserveAspectRatio="xMidYMid meet" height="386" width="1500" xmlns="http://www.w3.org/2000/svg" xmlns:xlink="http://www.w3.org/1999/xlink"><g id="tight-bounds" transform="matrix(1,0,0,1,0.2400000000000091,-0.20113932391626577)"><svg viewBox="0 0 395.52 102.40227864783253" height="102.40227864783253" width="395.52"><g><svg viewBox="0 0 567.568180727681 146.94648815361893" height="102.40227864783253" width="395.52"><g transform="matrix(1,0,0,1,0,20.308812762186122)"><svg viewBox="0 0 395.52 106.32886262924669" height="106.32886262924669" width="395.52"><g id="textblocktransform"><svg viewBox="0 0 395.52 106.32886262924669" height="106.32886262924669" width="395.52" id="textblock"><g><svg viewBox="0 0 395.52 106.32886262924669" height="106.32886262924669" width="395.52"><g transform="matrix(1,0,0,1,0,0)"><svg width="395.52" viewBox="4 -35.7 135.39 36.400000000000006" height="106.32886262924669" data-palette-color="#8eb4e5"><path d="M34.1-4.3L34.4-4.3 34.1-1.25Q32.7-0.65 30.7-0.2 28.7 0.25 26.65 0.48 24.6 0.7 23 0.7L23 0.7Q18.95 0.7 15.5-0.68 12.05-2.05 9.47-4.5 6.9-6.95 5.45-10.28 4-13.6 4-17.5L4-17.5Q4-21.4 5.45-24.73 6.9-28.05 9.47-30.5 12.05-32.95 15.5-34.33 18.95-35.7 23-35.7L23-35.7Q24.65-35.7 26.7-35.45 28.75-35.2 30.7-34.77 32.65-34.35 34-33.8L34-33.8 33.75-31 33.45-31Q31.6-32.7 28.8-33.6 26-34.5 23-34.5L23-34.5Q18.5-34.5 15.08-32.38 11.65-30.25 9.73-26.43 7.8-22.6 7.8-17.5L7.8-17.5Q7.8-12.35 9.73-8.55 11.65-4.75 15.05-2.63 18.45-0.5 23-0.5L23-0.5Q26.4-0.5 29.33-1.6 32.25-2.7 34.1-4.3L34.1-4.3ZM47.8 0L44.4 0 44.4-35 47.8-35 47.8-18.8 68.8-18.8 68.8-35 72.2-35 72.2 0 68.8 0 68.8-17.6 47.8-17.6 47.8 0ZM83.65 0L80 0 93.45-35 96.55-35 110 0 106.35 0 100.15-16.4 88.8-16.4 83.65 0ZM94.1-32.4L93.8-32.4 89.15-17.6 99.7-17.6 94.1-32.4ZM126.49 0L123.09 0 123.09-34Q122.34-34 119.99-33.7L119.99-33.7 110.19-32.45 110.19-35 139.39-35 139.39-32.45 129.59-33.7Q127.24-34 126.49-34L126.49-34 126.49 0Z" opacity="1" transform="matrix(1,0,0,1,0,0)" fill="#000000" class="wordmark-text-0" data-fill-palette-color="primary" id="text-0"></path></svg></g></svg></g></svg></g></svg></g><g transform="matrix(1,0,0,1,420.621692574062,0)"><svg viewBox="0 0 146.94648815361893 146.94648815361893" height="146.94648815361893" width="146.94648815361893"><g data-palette-color="#d6350e"><rect width="40.16537342865584" height="146.94648815361893" fill="#000000" stroke="transparent" data-fill-palette-color="accent" x="0" fill-opacity="1"></rect><rect width="40.16537342865584" height="146.94648815361893" fill="#000000" stroke="transparent" data-fill-palette-color="accent" x="48.982162717872974" fill-opacity="0.75"></rect><rect width="40.16537342865584" height="146.94648815361893" fill="#000000" stroke="transparent" data-fill-palette-color="accent" x="97.96432543574595" fill-opacity="0.5"></rect></g></svg></g></svg></g><defs></defs></svg><rect width="395.52" height="102.40227864783253" fill="none" stroke="none" visibility="hidden"></rect></g></svg></g></svg>